<svg width="16" height="16" viewBox="0 0 16 16" fill="none" xmlns="http://www.w3.org/2000/svg">
<path d="M8.16998 0.170166C3.88873 0.170166 0.419983 3.63892 0.419983 7.92017C0.419983 12.2014 3.88873 15.6702 8.16998 15.6702C12.4512 15.6702 15.92 12.2014 15.92 7.92017C15.92 3.63892 12.4512 0.170166 8.16998 0.170166ZM7.26373 4.67017C6.95123 4.38892 6.95123 3.88892 7.23248 3.60767L7.57623 3.26392C7.88873 2.95142 8.35748 2.95142 8.63873 3.26392L12.795 7.42017C13.0762 7.70142 13.0762 8.17017 12.795 8.45142L8.63873 12.6077C8.35748 12.8889 7.88873 12.8889 7.57623 12.6077L7.23248 12.2639C6.95123 11.9827 6.95123 11.4827 7.26373 11.2014L9.60748 8.92017H3.91998C3.48248 8.92017 3.16998 8.60767 3.16998 8.17017V7.67017C3.16998 7.26392 3.48248 6.92017 3.91998 6.92017H9.60748L7.26373 4.67017Z" fill="#3267FF"/>
</svg>
