<svg width="14" height="14" viewBox="0 0 14 14" fill="none" xmlns="http://www.w3.org/2000/svg">
<path d="M5.64392 1.78809L6.28845 1.14355C6.58142 0.879883 7.02087 0.879883 7.28455 1.14355L12.9974 6.82715C13.2611 7.12012 13.2611 7.55957 12.9974 7.82324L7.28455 13.5361C7.02087 13.7998 6.58142 13.7998 6.28845 13.5361L5.64392 12.8916C5.38025 12.5986 5.38025 12.1592 5.64392 11.8662L9.18884 8.49707H0.78064C0.370483 8.49707 0.0775146 8.2041 0.0775146 7.79395V6.85645C0.0775146 6.47559 0.370483 6.15332 0.78064 6.15332H9.18884L5.64392 2.81348C5.38025 2.52051 5.35095 2.08105 5.64392 1.78809Z" fill="white"/>
</svg>
