<svg width="18" height="19" viewBox="0 0 18 19" fill="none" xmlns="http://www.w3.org/2000/svg">
<path d="M17.7188 9.42004C17.7188 14.2365 13.7812 18.1388 9 18.1388C4.18359 18.1388 0.28125 14.2365 0.28125 9.42004C0.28125 4.63879 4.18359 0.701294 9 0.701294C13.7812 0.701294 17.7188 4.63879 17.7188 9.42004ZM7.98047 14.0607L14.4492 7.59192C14.6602 7.38098 14.6602 6.99426 14.4492 6.78333L13.6406 6.00989C13.4297 5.76379 13.0781 5.76379 12.8672 6.00989L7.59375 11.2833L5.09766 8.82239C4.88672 8.57629 4.53516 8.57629 4.32422 8.82239L3.51562 9.59583C3.30469 9.80676 3.30469 10.1935 3.51562 10.4044L7.17188 14.0607C7.38281 14.2716 7.76953 14.2716 7.98047 14.0607Z" fill="#3267FF"/>
</svg>
