<svg width="25" height="25" viewBox="0 0 25 25" fill="none" xmlns="http://www.w3.org/2000/svg">
<g clip-path="url(#clip0_1_485)">
<path d="M3.54751 4.14143V4.86665H0.646662V20.8213H16.6013V4.86665H13.7005V4.14143H12.2501V4.86665H4.99794V4.14143H3.54751ZM2.09709 6.31707H3.54751V7.04228H4.99794V6.31707H12.2501V7.04228H13.7005V6.31707H15.1509V7.7675H2.09709V6.31707ZM2.09709 9.21792H15.1509V19.3709H2.09709V9.21792ZM6.44836 10.6683V12.1188H7.89879V10.6683H6.44836ZM9.34921 10.6683V12.1188H10.7996V10.6683H9.34921ZM12.2501 10.6683V12.1188H13.7005V10.6683H12.2501ZM3.54751 13.5692V15.0196H4.99794V13.5692H3.54751ZM6.44836 13.5692V15.0196H7.89879V13.5692H6.44836ZM9.34921 13.5692V15.0196H10.7996V13.5692H9.34921ZM12.2501 13.5692V15.0196H13.7005V13.5692H12.2501ZM3.54751 16.47V17.9205H4.99794V16.47H3.54751ZM6.44836 16.47V17.9205H7.89879V16.47H6.44836ZM9.34921 16.47V17.9205H10.7996V16.47H9.34921Z" fill="#3267FF"/>
</g>
<defs>
<clipPath id="clip0_1_485">
<rect width="24" height="24" fill="white" transform="matrix(1 0 0 -1 0.250061 24.81)"/>
</clipPath>
</defs>
</svg>
