<svg width="351" height="37" viewBox="0 0 351 37" fill="none" xmlns="http://www.w3.org/2000/svg">
<rect y="26.3601" width="350.89" height="10" rx="4" fill="#3267FF"/>
<path d="M322.252 11.5521C321.345 11.5521 320.609 11.4081 320.044 11.1201C319.479 10.8321 319.063 10.4481 318.796 9.96811C318.54 9.48811 318.412 8.95477 318.412 8.36811C318.412 7.77077 318.561 7.24277 318.86 6.78411C319.159 6.32544 319.628 5.97344 320.268 5.72811C319.756 5.46144 319.367 5.10944 319.1 4.67211C318.844 4.23477 318.716 3.74944 318.716 3.21611C318.716 2.65077 318.844 2.14411 319.1 1.69611C319.367 1.23744 319.761 0.874774 320.284 0.608107C320.817 0.330774 321.473 0.192107 322.252 0.192107C323.031 0.192107 323.681 0.330774 324.204 0.608107C324.727 0.874774 325.121 1.23744 325.388 1.69611C325.655 2.14411 325.788 2.65077 325.788 3.21611C325.788 3.74944 325.655 4.23477 325.388 4.67211C325.121 5.10944 324.732 5.46144 324.22 5.72811C324.871 5.97344 325.34 6.32544 325.628 6.78411C325.927 7.24277 326.076 7.77077 326.076 8.36811C326.076 8.95477 325.943 9.48811 325.676 9.96811C325.42 10.4481 325.009 10.8321 324.444 11.1201C323.889 11.4081 323.159 11.5521 322.252 11.5521ZM322.252 10.3841C323.031 10.3841 323.617 10.2028 324.012 9.84011C324.407 9.47744 324.604 8.98144 324.604 8.35211C324.604 7.73344 324.407 7.24277 324.012 6.88011C323.617 6.51744 323.031 6.33611 322.252 6.33611C321.473 6.33611 320.881 6.51744 320.476 6.88011C320.081 7.24277 319.884 7.73344 319.884 8.35211C319.884 8.98144 320.081 9.47744 320.476 9.84011C320.881 10.2028 321.473 10.3841 322.252 10.3841ZM322.252 5.16811C322.903 5.16811 323.415 5.00277 323.788 4.67211C324.161 4.33077 324.348 3.85611 324.348 3.24811C324.348 2.65077 324.161 2.18677 323.788 1.85611C323.415 1.52544 322.903 1.36011 322.252 1.36011C321.601 1.36011 321.089 1.52544 320.716 1.85611C320.343 2.18677 320.156 2.65077 320.156 3.24811C320.156 3.85611 320.343 4.33077 320.716 4.67211C321.089 5.00277 321.601 5.16811 322.252 5.16811ZM329.168 11.3601C329.168 10.3681 329.296 9.41344 329.552 8.49611C329.808 7.57877 330.138 6.70944 330.544 5.88811C330.96 5.06677 331.413 4.30411 331.904 3.60011C332.394 2.89611 332.874 2.26144 333.344 1.69611H327.472V0.384107H335.2V1.26411C334.805 1.72277 334.394 2.23477 333.968 2.80011C333.552 3.35477 333.152 3.94677 332.768 4.57611C332.384 5.19477 332.037 5.84011 331.728 6.51211C331.418 7.18411 331.173 7.86677 330.992 8.56011C330.81 9.24277 330.72 9.92544 330.72 10.6081V11.3601H329.168ZM338.715 11.3601L346.635 0.384107H347.915L339.979 11.3601H338.715ZM339.595 5.96811C339.094 5.96811 338.657 5.88277 338.283 5.71211C337.921 5.53077 337.643 5.23211 337.451 4.81611C337.259 4.40011 337.163 3.82411 337.163 3.08811C337.163 2.34144 337.259 1.76011 337.451 1.34411C337.643 0.928107 337.921 0.634774 338.283 0.464107C338.657 0.282774 339.094 0.192107 339.595 0.192107C340.107 0.192107 340.539 0.282774 340.891 0.464107C341.243 0.634774 341.515 0.928107 341.707 1.34411C341.91 1.76011 342.011 2.34144 342.011 3.08811C342.011 3.82411 341.91 4.40544 341.707 4.83211C341.515 5.24811 341.243 5.54144 340.891 5.71211C340.539 5.88277 340.107 5.96811 339.595 5.96811ZM339.595 5.02411C340.075 5.02411 340.395 4.86411 340.555 4.54411C340.715 4.21344 340.795 3.75477 340.795 3.16811V3.00811C340.795 2.61344 340.763 2.27744 340.699 2.00011C340.635 1.72277 340.513 1.50944 340.331 1.36011C340.161 1.21077 339.915 1.13611 339.595 1.13611C339.126 1.13611 338.806 1.30144 338.635 1.63211C338.465 1.95211 338.379 2.41077 338.379 3.00811V3.16811C338.379 3.75477 338.465 4.21344 338.635 4.54411C338.806 4.86411 339.126 5.02411 339.595 5.02411ZM347.019 11.5521C346.518 11.5521 346.086 11.4668 345.723 11.2961C345.361 11.1148 345.083 10.8161 344.891 10.4001C344.699 9.98411 344.603 9.40811 344.603 8.67211C344.603 7.92544 344.699 7.34411 344.891 6.92811C345.083 6.51211 345.361 6.21877 345.723 6.04811C346.086 5.86677 346.518 5.77611 347.019 5.77611C347.531 5.77611 347.963 5.86677 348.315 6.04811C348.678 6.21877 348.955 6.51211 349.147 6.92811C349.339 7.34411 349.435 7.92544 349.435 8.67211C349.435 9.40811 349.339 9.98944 349.147 10.4161C348.955 10.8321 348.678 11.1254 348.315 11.2961C347.963 11.4668 347.531 11.5521 347.019 11.5521ZM347.019 10.6081C347.51 10.6081 347.83 10.4481 347.979 10.1281C348.139 9.79744 348.219 9.33344 348.219 8.73611V8.59211C348.219 8.19744 348.187 7.86144 348.123 7.58411C348.059 7.30677 347.942 7.09344 347.771 6.94411C347.601 6.79477 347.35 6.72011 347.019 6.72011C346.55 6.72011 346.23 6.88544 346.059 7.21611C345.899 7.53611 345.819 7.99477 345.819 8.59211V8.73611C345.819 9.33344 345.899 9.79744 346.059 10.1281C346.23 10.4481 346.55 10.6081 347.019 10.6081Z" fill="#636571"/>
</svg>
