<svg width="16" height="16" viewBox="0 0 16 16" fill="none" xmlns="http://www.w3.org/2000/svg">
<path d="M1.606 1.94394V2.99994H5.318V11.3359H1.606V12.3919H6.262V1.94394H1.606ZM0.966 1.94394V13.8319H1.91V1.94394H0.966ZM1.51 6.48794V7.51194H5.814V6.48794H1.51ZM8.166 14.0399V15.0959H13.686V14.0399H8.166ZM8.902 2.71194V3.73594H13.478V2.71194H8.902ZM3.174 2.48794V11.8479H3.99V2.48794H3.174ZM7.446 9.86394V15.6559H8.582V10.9359H13.03V15.6239H14.214V9.86394H7.446ZM13.206 2.71194V2.93594C11.99 5.99194 8.886 8.53594 5.99 9.62394C6.23 9.84794 6.534 10.2799 6.694 10.5679C9.782 9.27194 12.982 6.66394 14.406 3.04794L13.622 2.64794L13.398 2.71194H13.206ZM9.494 0.951941C8.758 2.79194 7.446 4.51994 5.974 5.62394C6.246 5.81594 6.694 6.23194 6.886 6.43994C8.358 5.22394 9.782 3.31994 10.646 1.25594L9.494 0.951941ZM8.886 3.54394L8.054 4.13594C9.158 6.35994 11.526 9.06394 14.726 10.3759C14.902 10.0719 15.254 9.60794 15.494 9.38394C12.294 8.21594 9.926 5.67194 8.886 3.54394Z" fill="white"/>
</svg>
