<svg width="17" height="17" viewBox="0 0 17 17" fill="none" xmlns="http://www.w3.org/2000/svg">
<g clip-path="url(#clip0_1_538)">
<path d="M15.5338 1.95841C15.4733 1.92819 15.4104 1.91056 15.3449 1.90553C15.2794 1.90049 15.2165 1.91308 15.156 1.9433L10.6839 4.17937L6.21176 1.9433C6.1614 1.91308 6.106 1.89797 6.04557 1.89797C5.98513 1.89797 5.9247 1.91308 5.86426 1.9433L1.22592 4.27002C1.16549 4.30024 1.11513 4.34556 1.07484 4.406C1.03455 4.46643 1.0144 4.5319 1.0144 4.60241V16.2058C1.0144 16.2763 1.02951 16.3418 1.05973 16.4022C1.08995 16.4627 1.13527 16.508 1.19571 16.5382C1.22592 16.5583 1.25866 16.5735 1.29391 16.5835C1.32917 16.5936 1.36694 16.5986 1.40723 16.5986C1.43744 16.5986 1.46514 16.5961 1.49032 16.5911C1.51551 16.586 1.54321 16.5735 1.57342 16.5533L6.04557 14.3172L10.5177 16.5533C10.5681 16.5835 10.6235 16.5986 10.6839 16.5986C10.7443 16.5986 10.7997 16.5835 10.8501 16.5533L15.5035 14.2417C15.564 14.2014 15.6143 14.151 15.6546 14.0906C15.6949 14.0302 15.7151 13.9647 15.7151 13.8942V2.2908C15.7151 2.22029 15.6974 2.15734 15.6622 2.10194C15.6269 2.04654 15.5841 1.9987 15.5338 1.95841ZM5.65274 13.6525L1.78494 15.5864V4.84415L5.65274 2.91025V13.6525ZM6.42328 2.91025L10.2911 4.84415V15.5864L6.42328 13.6525V2.91025ZM14.9445 13.6525L11.0767 15.5864V4.84415L14.9445 2.91025V13.6525Z" fill="white"/>
</g>
<defs>
<clipPath id="clip0_1_538">
<rect width="16" height="16" fill="white" transform="matrix(1 0 0 -1 0.75 16.8403)"/>
</clipPath>
</defs>
</svg>
