<svg width="15" height="15" viewBox="0 0 15 15" fill="none" xmlns="http://www.w3.org/2000/svg">
<g clip-path="url(#clip0_1_36)">
<path d="M13.2007 1.78962H11.5086V1.45912C11.5086 1.36218 11.4755 1.28065 11.4094 1.21455C11.3433 1.14845 11.2662 1.1154 11.1781 1.1154C11.0811 1.1154 10.9996 1.14845 10.9335 1.21455C10.8674 1.28065 10.8343 1.36218 10.8343 1.45912V1.78962H4.06569V1.45912C4.06569 1.36218 4.03264 1.28065 3.96654 1.21455C3.90044 1.14845 3.81892 1.1154 3.72197 1.1154C3.63384 1.1154 3.55672 1.14845 3.49062 1.21455C3.42452 1.28065 3.39147 1.36218 3.39147 1.45912V1.78962H1.69931C1.41728 1.78962 1.17712 1.88877 0.978816 2.08707C0.780516 2.28537 0.681366 2.52554 0.681366 2.80757V12.2863C0.681366 12.5683 0.780516 12.8085 0.978816 13.0068C1.17712 13.2051 1.41728 13.3043 1.69931 13.3043H13.2007C13.4828 13.3043 13.7229 13.2051 13.9212 13.0068C14.1195 12.8085 14.2187 12.5683 14.2187 12.2863V2.80757C14.2187 2.52554 14.1195 2.28537 13.9212 2.08707C13.7229 1.88877 13.4828 1.78962 13.2007 1.78962ZM1.69931 2.47707H3.39147V3.48179C3.39147 3.57873 3.42452 3.66026 3.49062 3.72636C3.55672 3.79246 3.63384 3.82551 3.72197 3.82551C3.81892 3.82551 3.90044 3.79246 3.96654 3.72636C4.03264 3.66026 4.06569 3.57873 4.06569 3.48179V2.47707H10.8343V3.48179C10.8343 3.57873 10.8674 3.66026 10.9335 3.72636C10.9996 3.79246 11.0811 3.82551 11.1781 3.82551C11.2662 3.82551 11.3433 3.79246 11.4094 3.72636C11.4755 3.66026 11.5086 3.57873 11.5086 3.48179V2.47707H13.2007C13.2977 2.47707 13.3792 2.51011 13.4453 2.57621C13.5114 2.64231 13.5444 2.71943 13.5444 2.80757V4.49973H1.35559V2.80757C1.35559 2.71943 1.38864 2.64231 1.45474 2.57621C1.52084 2.51011 1.60236 2.47707 1.69931 2.47707ZM13.2007 12.63H1.69931C1.60236 12.63 1.52084 12.597 1.45474 12.5309C1.38864 12.4648 1.35559 12.3833 1.35559 12.2863V5.17395H13.5444V12.2863C13.5444 12.3833 13.5114 12.4648 13.4453 12.5309C13.3792 12.597 13.2977 12.63 13.2007 12.63ZM5.75785 7.20983H5.08363C4.98669 7.20983 4.90516 7.17678 4.83906 7.11068C4.77296 7.04458 4.73991 6.96306 4.73991 6.86611C4.73991 6.77798 4.77296 6.70086 4.83906 6.63476C4.90516 6.56866 4.98669 6.53561 5.08363 6.53561H5.75785C5.8548 6.53561 5.93632 6.56866 6.00242 6.63476C6.06852 6.70086 6.10157 6.77798 6.10157 6.86611C6.10157 6.96306 6.06852 7.04458 6.00242 7.11068C5.93632 7.17678 5.8548 7.20983 5.75785 7.20983ZM7.79374 7.20983H7.1063C7.01816 7.20983 6.94104 7.17678 6.87494 7.11068C6.80884 7.04458 6.77579 6.96306 6.77579 6.86611C6.77579 6.77798 6.80884 6.70086 6.87494 6.63476C6.94104 6.56866 7.01816 6.53561 7.1063 6.53561H7.79374C7.88187 6.53561 7.95899 6.56866 8.02509 6.63476C8.09119 6.70086 8.12424 6.77798 8.12424 6.86611C8.12424 6.96306 8.09119 7.04458 8.02509 7.11068C7.95899 7.17678 7.88187 7.20983 7.79374 7.20983ZM9.8164 7.20983H9.14218C9.04523 7.20983 8.96371 7.17678 8.89761 7.11068C8.83151 7.04458 8.79846 6.96306 8.79846 6.86611C8.79846 6.77798 8.83151 6.70086 8.89761 6.63476C8.96371 6.56866 9.04523 6.53561 9.14218 6.53561H9.8164C9.91335 6.53561 9.99487 6.56866 10.061 6.63476C10.1271 6.70086 10.1601 6.77798 10.1601 6.86611C10.1601 6.96306 10.1271 7.04458 10.061 7.11068C9.99487 7.17678 9.91335 7.20983 9.8164 7.20983ZM11.8523 7.20983H11.1781C11.0811 7.20983 10.9996 7.17678 10.9335 7.11068C10.8674 7.04458 10.8343 6.96306 10.8343 6.86611C10.8343 6.77798 10.8674 6.70086 10.9335 6.63476C10.9996 6.56866 11.0811 6.53561 11.1781 6.53561H11.8523C11.9404 6.53561 12.0175 6.56866 12.0836 6.63476C12.1497 6.70086 12.1828 6.77798 12.1828 6.86611C12.1828 6.96306 12.1497 7.04458 12.0836 7.11068C12.0175 7.17678 11.9404 7.20983 11.8523 7.20983ZM3.72197 8.55827H3.04775C2.95962 8.55827 2.8825 8.52522 2.8164 8.45912C2.7503 8.39302 2.71725 8.31591 2.71725 8.22777C2.71725 8.13083 2.7503 8.0493 2.8164 7.9832C2.8825 7.9171 2.95962 7.88405 3.04775 7.88405H3.72197C3.81892 7.88405 3.90044 7.9171 3.96654 7.9832C4.03264 8.0493 4.06569 8.13083 4.06569 8.22777C4.06569 8.31591 4.03264 8.39302 3.96654 8.45912C3.90044 8.52522 3.81892 8.55827 3.72197 8.55827ZM5.75785 8.55827H5.08363C4.98669 8.55827 4.90516 8.52522 4.83906 8.45912C4.77296 8.39302 4.73991 8.31591 4.73991 8.22777C4.73991 8.13083 4.77296 8.0493 4.83906 7.9832C4.90516 7.9171 4.98669 7.88405 5.08363 7.88405H5.75785C5.8548 7.88405 5.93632 7.9171 6.00242 7.9832C6.06852 8.0493 6.10157 8.13083 6.10157 8.22777C6.10157 8.31591 6.06852 8.39302 6.00242 8.45912C5.93632 8.52522 5.8548 8.55827 5.75785 8.55827ZM7.79374 8.55827H7.1063C7.01816 8.55827 6.94104 8.52522 6.87494 8.45912C6.80884 8.39302 6.77579 8.31591 6.77579 8.22777C6.77579 8.13083 6.80884 8.0493 6.87494 7.9832C6.94104 7.9171 7.01816 7.88405 7.1063 7.88405H7.79374C7.88187 7.88405 7.95899 7.9171 8.02509 7.9832C8.09119 8.0493 8.12424 8.13083 8.12424 8.22777C8.12424 8.31591 8.09119 8.39302 8.02509 8.45912C7.95899 8.52522 7.88187 8.55827 7.79374 8.55827ZM9.8164 8.55827H9.14218C9.04523 8.55827 8.96371 8.52522 8.89761 8.45912C8.83151 8.39302 8.79846 8.31591 8.79846 8.22777C8.79846 8.13083 8.83151 8.0493 8.89761 7.9832C8.96371 7.9171 9.04523 7.88405 9.14218 7.88405H9.8164C9.91335 7.88405 9.99487 7.9171 10.061 7.9832C10.1271 8.0493 10.1601 8.13083 10.1601 8.22777C10.1601 8.31591 10.1271 8.39302 10.061 8.45912C9.99487 8.52522 9.91335 8.55827 9.8164 8.55827ZM11.8523 8.55827H11.1781C11.0811 8.55827 10.9996 8.52522 10.9335 8.45912C10.8674 8.39302 10.8343 8.31591 10.8343 8.22777C10.8343 8.13083 10.8674 8.0493 10.9335 7.9832C10.9996 7.9171 11.0811 7.88405 11.1781 7.88405H11.8523C11.9404 7.88405 12.0175 7.9171 12.0836 7.9832C12.1497 8.0493 12.1828 8.13083 12.1828 8.22777C12.1828 8.31591 12.1497 8.39302 12.0836 8.45912C12.0175 8.52522 11.9404 8.55827 11.8523 8.55827ZM3.72197 9.91994H3.04775C2.95962 9.91994 2.8825 9.88689 2.8164 9.82079C2.7503 9.75469 2.71725 9.67316 2.71725 9.57622C2.71725 9.48808 2.7503 9.41096 2.8164 9.34486C2.8825 9.27876 2.95962 9.24571 3.04775 9.24571H3.72197C3.81892 9.24571 3.90044 9.27876 3.96654 9.34486C4.03264 9.41096 4.06569 9.48808 4.06569 9.57622C4.06569 9.67316 4.03264 9.75469 3.96654 9.82079C3.90044 9.88689 3.81892 9.91994 3.72197 9.91994ZM5.75785 9.91994H5.08363C4.98669 9.91994 4.90516 9.88689 4.83906 9.82079C4.77296 9.75469 4.73991 9.67316 4.73991 9.57622C4.73991 9.48808 4.77296 9.41096 4.83906 9.34486C4.90516 9.27876 4.98669 9.24571 5.08363 9.24571H5.75785C5.8548 9.24571 5.93632 9.27876 6.00242 9.34486C6.06852 9.41096 6.10157 9.48808 6.10157 9.57622C6.10157 9.67316 6.06852 9.75469 6.00242 9.82079C5.93632 9.88689 5.8548 9.91994 5.75785 9.91994ZM7.79374 9.91994H7.1063C7.01816 9.91994 6.94104 9.88689 6.87494 9.82079C6.80884 9.75469 6.77579 9.67316 6.77579 9.57622C6.77579 9.48808 6.80884 9.41096 6.87494 9.34486C6.94104 9.27876 7.01816 9.24571 7.1063 9.24571H7.79374C7.88187 9.24571 7.95899 9.27876 8.02509 9.34486C8.09119 9.41096 8.12424 9.48808 8.12424 9.57622C8.12424 9.67316 8.09119 9.75469 8.02509 9.82079C7.95899 9.88689 7.88187 9.91994 7.79374 9.91994ZM9.8164 9.91994H9.14218C9.04523 9.91994 8.96371 9.88689 8.89761 9.82079C8.83151 9.75469 8.79846 9.67316 8.79846 9.57622C8.79846 9.48808 8.83151 9.41096 8.89761 9.34486C8.96371 9.27876 9.04523 9.24571 9.14218 9.24571H9.8164C9.91335 9.24571 9.99487 9.27876 10.061 9.34486C10.1271 9.41096 10.1601 9.48808 10.1601 9.57622C10.1601 9.67316 10.1271 9.75469 10.061 9.82079C9.99487 9.88689 9.91335 9.91994 9.8164 9.91994ZM11.8523 9.91994H11.1781C11.0811 9.91994 10.9996 9.88689 10.9335 9.82079C10.8674 9.75469 10.8343 9.67316 10.8343 9.57622C10.8343 9.48808 10.8674 9.41096 10.9335 9.34486C10.9996 9.27876 11.0811 9.24571 11.1781 9.24571H11.8523C11.9404 9.24571 12.0175 9.27876 12.0836 9.34486C12.1497 9.41096 12.1828 9.48808 12.1828 9.57622C12.1828 9.67316 12.1497 9.75469 12.0836 9.82079C12.0175 9.88689 11.9404 9.91994 11.8523 9.91994ZM3.72197 11.2684H3.04775C2.95962 11.2684 2.8825 11.2353 2.8164 11.1692C2.7503 11.1031 2.71725 11.026 2.71725 10.9379C2.71725 10.8409 2.7503 10.7594 2.8164 10.6933C2.8825 10.6272 2.95962 10.5942 3.04775 10.5942H3.72197C3.81892 10.5942 3.90044 10.6272 3.96654 10.6933C4.03264 10.7594 4.06569 10.8409 4.06569 10.9379C4.06569 11.026 4.03264 11.1031 3.96654 11.1692C3.90044 11.2353 3.81892 11.2684 3.72197 11.2684ZM5.75785 11.2684H5.08363C4.98669 11.2684 4.90516 11.2353 4.83906 11.1692C4.77296 11.1031 4.73991 11.026 4.73991 10.9379C4.73991 10.8409 4.77296 10.7594 4.83906 10.6933C4.90516 10.6272 4.98669 10.5942 5.08363 10.5942H5.75785C5.8548 10.5942 5.93632 10.6272 6.00242 10.6933C6.06852 10.7594 6.10157 10.8409 6.10157 10.9379C6.10157 11.026 6.06852 11.1031 6.00242 11.1692C5.93632 11.2353 5.8548 11.2684 5.75785 11.2684ZM7.79374 11.2684H7.1063C7.01816 11.2684 6.94104 11.2353 6.87494 11.1692C6.80884 11.1031 6.77579 11.026 6.77579 10.9379C6.77579 10.8409 6.80884 10.7594 6.87494 10.6933C6.94104 10.6272 7.01816 10.5942 7.1063 10.5942H7.79374C7.88187 10.5942 7.95899 10.6272 8.02509 10.6933C8.09119 10.7594 8.12424 10.8409 8.12424 10.9379C8.12424 11.026 8.09119 11.1031 8.02509 11.1692C7.95899 11.2353 7.88187 11.2684 7.79374 11.2684ZM9.8164 11.2684H9.14218C9.04523 11.2684 8.96371 11.2353 8.89761 11.1692C8.83151 11.1031 8.79846 11.026 8.79846 10.9379C8.79846 10.8409 8.83151 10.7594 8.89761 10.6933C8.96371 10.6272 9.04523 10.5942 9.14218 10.5942H9.8164C9.91335 10.5942 9.99487 10.6272 10.061 10.6933C10.1271 10.7594 10.1601 10.8409 10.1601 10.9379C10.1601 11.026 10.1271 11.1031 10.061 11.1692C9.99487 11.2353 9.91335 11.2684 9.8164 11.2684ZM11.8523 11.2684H11.1781C11.0811 11.2684 10.9996 11.2353 10.9335 11.1692C10.8674 11.1031 10.8343 11.026 10.8343 10.9379C10.8343 10.8409 10.8674 10.7594 10.9335 10.6933C10.9996 10.6272 11.0811 10.5942 11.1781 10.5942H11.8523C11.9404 10.5942 12.0175 10.6272 12.0836 10.6933C12.1497 10.7594 12.1828 10.8409 12.1828 10.9379C12.1828 11.026 12.1497 11.1031 12.0836 11.1692C12.0175 11.2353 11.9404 11.2684 11.8523 11.2684Z" fill="#3267FF"/>
</g>
<defs>
<clipPath id="clip0_1_36">
<rect width="14" height="14" fill="white" transform="matrix(1 0 0 -1 0.450012 14.19)"/>
</clipPath>
</defs>
</svg>
