<svg width="45" height="30" viewBox="0 0 45 30" fill="none" xmlns="http://www.w3.org/2000/svg">
<path d="M11.8697 0.351364C8.88574 0.351364 6.32672 1.41841 4.19263 3.5525C2.05855 5.68659 0.991501 8.2456 0.991501 11.2296V29.3599H19.1218V11.2296H4.61756C4.61756 9.22766 5.32578 7.5185 6.74221 6.10207C8.15864 4.68564 9.8678 3.97743 11.8697 3.97743V0.351364ZM37.2521 0.351364C34.2682 0.351364 31.7092 1.41841 29.5751 3.5525C27.441 5.68659 26.3739 8.2456 26.3739 11.2296V29.3599H44.5042V11.2296H30C30 9.22766 30.7082 7.5185 32.1246 6.10207C33.5411 4.68564 35.2502 3.97743 37.2521 3.97743V0.351364ZM4.61756 14.8556H15.4958V25.7338H4.61756V14.8556ZM30 14.8556H40.8782V25.7338H30V14.8556Z" fill="#3267FF"/>
</svg>
