<svg width="15" height="15" viewBox="0 0 15 15" fill="none" xmlns="http://www.w3.org/2000/svg">
<g clip-path="url(#clip0_1_44)">
<path d="M2.86038 4.36718C3.22594 4.11168 3.77699 4.16068 4.10521 4.43174L3.72877 3.88457C3.42583 3.45252 3.53433 2.98507 3.96677 2.68174C4.39921 2.37957 5.6246 3.19196 5.6246 3.19196C5.31894 2.75563 5.3761 2.20263 5.81244 1.89657C6.24877 1.59168 6.85077 1.69707 7.15644 2.13418L11.2087 7.85863L10.6922 12.8656L6.38216 11.2937L2.62277 5.71974C2.31438 5.28068 2.42094 4.67518 2.86038 4.36718Z" fill="#EF9645"/>
<path d="M2.01801 7.55179C2.01801 7.55179 1.57778 6.91012 2.21984 6.47029C2.86112 6.03045 3.30095 6.67173 3.30095 6.67173L5.34301 9.64984C5.4134 9.5324 5.4904 9.41651 5.57634 9.30218L2.74212 5.16945C2.74212 5.16945 2.30228 4.52818 2.94395 4.08834C3.58523 3.64851 4.02506 4.28979 4.02506 4.28979L6.6909 8.17751C6.79006 8.09662 6.89156 8.01534 6.99617 7.93562L3.90567 3.42801C3.90567 3.42801 3.46584 2.78673 4.10751 2.3469C4.74878 1.90706 5.18862 2.54834 5.18862 2.54834L8.27912 7.05518C8.39267 6.98556 8.50506 6.92529 8.61784 6.86151L5.72917 2.64906C5.72917 2.64906 5.28934 2.00779 5.93062 1.56795C6.5719 1.12812 7.01173 1.7694 7.01173 1.7694L10.0661 6.22373L10.5304 6.90118C8.60617 8.22106 8.42301 10.7041 9.5224 12.3075C9.74212 12.6283 10.063 12.4086 10.063 12.4086C8.74345 10.484 9.14634 8.3214 11.071 7.0019L10.5036 4.16223C10.5036 4.16223 10.2916 3.41401 11.0395 3.20168C11.7877 2.98973 12 3.73795 12 3.73795L12.6553 5.68395C12.9151 6.45551 13.1916 7.22434 13.5575 7.95156C14.5908 10.0049 13.9736 12.5568 12.0253 13.8934C9.90001 15.3506 6.99462 14.8088 5.53706 12.684L2.01801 7.55179Z" fill="#FFDC5D"/>
<path d="M5.63667 13.2708C4.08111 13.2708 2.50922 11.6989 2.50922 10.1433C2.50922 9.92829 2.35172 9.75446 2.13667 9.75446C1.92161 9.75446 1.73145 9.92829 1.73145 10.1433C1.73145 12.4767 3.30333 14.0486 5.63667 14.0486C5.85172 14.0486 6.02556 13.8584 6.02556 13.6433C6.02556 13.4283 5.85172 13.2708 5.63667 13.2708Z" fill="#5DADEC"/>
<path d="M3.69219 14.0322C2.52553 14.0322 1.74775 13.2545 1.74775 12.0878C1.74775 11.8727 1.57392 11.6989 1.35886 11.6989C1.1438 11.6989 0.969971 11.8727 0.969971 12.0878C0.969971 13.6433 2.13664 14.81 3.69219 14.81C3.90725 14.81 4.08108 14.6362 4.08108 14.4211C4.08108 14.2061 3.90725 14.0322 3.69219 14.0322ZM10.3033 1.58778C10.0886 1.58778 9.91442 1.76201 9.91442 1.97667C9.91442 2.19134 10.0886 2.36556 10.3033 2.36556C11.8589 2.36556 13.4144 3.76128 13.4144 5.47667C13.4144 5.69134 13.5886 5.86556 13.8033 5.86556C14.018 5.86556 14.1922 5.69134 14.1922 5.47667C14.1922 3.33234 12.6366 1.58778 10.3033 1.58778Z" fill="#5DADEC"/>
<path d="M12.2478 0.82634C12.0331 0.82634 11.8589 0.984229 11.8589 1.1989C11.8589 1.41356 12.0331 1.60412 12.2478 1.60412C13.4144 1.60412 14.1759 2.4694 14.1759 3.53223C14.1759 3.7469 14.3661 3.92112 14.5811 3.92112C14.7962 3.92112 14.9537 3.7469 14.9537 3.53223C14.9537 2.04006 13.8033 0.82634 12.2478 0.82634Z" fill="#5DADEC"/>
</g>
<defs>
<clipPath id="clip0_1_44">
<rect width="14" height="14" fill="white" transform="translate(0.969971 0.810013)"/>
</clipPath>
</defs>
</svg>
