<svg width="29" height="29" viewBox="0 0 29 29" fill="none" xmlns="http://www.w3.org/2000/svg">
<rect x="0.549988" y="0.700012" width="28" height="28" rx="14" fill="#3267FF"/>
<path d="M20.17 13.1375H16.2325V9.20001C16.2325 8.73517 15.8223 8.32501 15.3575 8.32501H14.4825C13.9903 8.32501 13.6075 8.73517 13.6075 9.20001V13.1375H9.66998C9.1778 13.1375 8.79498 13.5477 8.79498 14.0125V14.8875C8.79498 15.3797 9.1778 15.7625 9.66998 15.7625H13.6075V19.7C13.6075 20.1922 13.9903 20.575 14.4825 20.575H15.3575C15.8223 20.575 16.2325 20.1922 16.2325 19.7V15.7625H20.17C20.6348 15.7625 21.045 15.3797 21.045 14.8875V14.0125C21.045 13.5477 20.6348 13.1375 20.17 13.1375Z" fill="white"/>
</svg>
