<svg width="25" height="25" viewBox="0 0 25 25" fill="none" xmlns="http://www.w3.org/2000/svg">
<g clip-path="url(#clip0_1_477)">
<path d="M6.16379 3.8015C5.84651 3.54466 5.49146 3.41623 5.09863 3.41623C4.70581 3.41623 4.35076 3.54466 4.03348 3.8015L3.98815 3.82417L3.96549 3.84683L1.6992 6.18111L1.72186 6.20377C1.37437 6.52105 1.14774 6.90632 1.04198 7.35958C0.936216 7.81284 0.958879 8.24343 1.10997 8.65136V8.67403C1.5179 9.8525 2.15624 11.1783 3.02498 12.6514C3.89372 14.1244 5.00798 15.5409 6.36775 16.9007C8.60383 19.1367 11.346 20.8893 14.5944 22.1584H14.617C15.5387 22.4757 16.3772 22.3095 17.1326 21.6599L19.4216 19.3709C19.7237 19.0687 19.8748 18.6948 19.8748 18.2491C19.8748 17.8034 19.7237 17.4295 19.4216 17.1273L16.4754 14.1811L16.4527 14.1358C16.1506 13.8336 15.7729 13.6825 15.3196 13.6825C14.8663 13.6825 14.4886 13.8336 14.1865 14.1358L12.736 15.5862C11.618 15.0423 10.6284 14.3624 9.76719 13.5465C8.93622 12.7609 8.26388 11.7788 7.75019 10.6004L9.20062 9.14995C9.50279 8.84777 9.65387 8.47761 9.65387 8.03946C9.65387 7.60132 9.49523 7.23115 9.17795 6.92898L9.20062 6.90632L9.13263 6.83833L6.20912 3.82417L6.16379 3.8015ZM4.93999 4.93465C5.00043 4.88932 5.05331 4.86666 5.09863 4.86666C5.14396 4.86666 5.19684 4.88932 5.25727 4.93465L8.22611 7.97148C8.27144 8.0168 8.25633 8.06968 8.18079 8.13012L6.36775 9.94315L6.02781 10.2604L6.18645 10.7137C6.24689 10.8799 6.34131 11.1027 6.46974 11.3822C6.59816 11.6617 6.88522 12.1452 7.33093 12.8327C7.77663 13.5201 8.25633 14.1131 8.77002 14.6117L8.92866 14.7477C9.42725 15.2009 9.98249 15.6278 10.5944 16.0281C11.2063 16.4285 11.6935 16.7118 12.0561 16.878L12.6 17.1273L13.0533 17.3312L15.2063 15.1783C15.2667 15.1178 15.3045 15.0876 15.3196 15.0876C15.3347 15.0876 15.3725 15.1178 15.4329 15.1783L18.4017 18.1471C18.4622 18.2075 18.4924 18.2415 18.4924 18.2491C18.4924 18.2566 18.4622 18.2906 18.4017 18.3511L16.1808 20.572C15.8635 20.844 15.4933 20.912 15.0703 20.776C12.0033 19.5673 9.44235 17.9356 7.38759 15.8808C6.11846 14.6117 5.07597 13.2784 4.26011 11.8808C3.44424 10.4833 2.84745 9.24815 2.46974 8.17544C2.33376 7.79773 2.4093 7.48045 2.69637 7.2236L2.74169 7.17827L4.93999 4.93465Z" fill="#3267FF"/>
</g>
<defs>
<clipPath id="clip0_1_477">
<rect width="24" height="24" fill="white" transform="matrix(1 0 0 -1 0.580048 24.81)"/>
</clipPath>
</defs>
</svg>
