<svg width="14" height="14" viewBox="0 0 14 14" fill="none" xmlns="http://www.w3.org/2000/svg">
<path d="M1.374 1.256V2.18H4.622V9.474H1.374V10.398H5.448V1.256H1.374ZM0.814 1.256V11.658H1.64V1.256H0.814ZM1.29 5.232V6.128H5.056V5.232H1.29ZM7.114 11.84V12.764H11.944V11.84H7.114ZM7.758 1.928V2.824H11.762V1.928H7.758ZM2.746 1.732V9.922H3.46V1.732H2.746ZM6.484 8.186V13.254H7.478V9.124H11.37V13.226H12.406V8.186H6.484ZM11.524 1.928V2.124C10.46 4.798 7.744 7.024 5.21 7.976C5.42 8.172 5.686 8.55 5.826 8.802C8.528 7.668 11.328 5.386 12.574 2.222L11.888 1.872L11.692 1.928H11.524ZM8.276 0.388002C7.632 1.998 6.484 3.51 5.196 4.476C5.434 4.644 5.826 5.008 5.994 5.19C7.282 4.126 8.528 2.46 9.284 0.654002L8.276 0.388002ZM7.744 2.656L7.016 3.174C7.982 5.12 10.054 7.486 12.854 8.634C13.008 8.368 13.316 7.962 13.526 7.766C10.726 6.744 8.654 4.518 7.744 2.656Z" fill="#3267FF"/>
</svg>
